# xmcd
#
# Track frame offsets:
#	150
#	18939
#	35425
#	49737
#	68877
#	86182
#	108830
#	128124
#	160166
#	189687
#	218564
#	240822
#	265773
#	290436
#	315754
#
# Disc length: 4410
#
# Revision: 1
# Processed by: cddbd v1.5.1PL0 Copyright (c) Steve Scherf et al.
# Submitted via: CDex 1.51
# Normalized: r0:DSETVAR2,TSWAP
#
DISCID=c011380f
DTITLE=Various Artist - BLUE NOTE - THE DISCOGRAPHY
DYEAR=2003
DGENRE=Jazz
TTITLE0=SINDEY BECHET - SUMMERTIME
TTITLE1=ALBERT AMMONS - BOOGIE WOOGIE STOMP
TTITLE2=THELONIOUS MONK - ROUND MIDNIGHT
TTITLE3=BUD POWELL - A NIGHT IN TUNISIA
TTITLE4=MILES DAVIS - TEMPUS FUGIT
TTITLE5=JIMMY SMITH - THE WAY YOU LOOK TONIGHT
TTITLE6=HORACE SILVER - THE PREACHER
TTITLE7=LEE MORGAN - I REMEMBER CLIFFORD
TTITLE8=SONNY CLARK - SOFTLY AS IN A MORNING SUNRISE
TTITLE9=ART BLAKEY and THE JAZZ MESSENGERS - LESTER LEFT TOWN
TTITLE10=TINA BROOKS - TRUE BLUE
TTITLE11=HERIBEI HANCOCK - CANTALOUPE ISLAND
TTITLE12=TONY WILLIAMS - FOREIGN INTRIGUE
TTITLE13=CASSANDRA WILSON - TUPELO HONEY
TTITLE14=MEDESKI, MARTIN and WOOD - SUGAR CRAFT
EXTD=YEAR: 2003
EXTT0=
EXTT1=
EXTT2=
EXTT3=
EXTT4=
EXTT5=
EXTT6=
EXTT7=
EXTT8=
EXTT9=
EXTT10=
EXTT11=
EXTT12=
EXTT13=
EXTT14=
PLAYORDER=
